<svg xmlns="http://www.w3.org/2000/svg" xmlns:xlink="http://www.w3.org/1999/xlink" viewBox="0 0 9 14"><defs><path id="a" d="M7.5 11.7c-.4 0-.6-.1-1-.5L1.3 5.5a1 1 0 0 1 0-1.2c.3-.4.8-.4 1.1 0l5.2 5.5 5.2-5.5c.3-.4.8-.4 1.1 0 .3.3.3.9 0 1.2l-5.3 5.7c-.4.4-.6.5-1 .5Z"/></defs><g fill="none" fill-rule="evenodd"><path fill="#none" d="M-1283-608H83v829h-1366z"/><g transform="matrix(-1 0 0 1 12 -1)"><path d="M0 0h15v16H0z"/><mask id="b" fill="#fff"><use xlink:href="#a"/></mask><g fill="#333" mask="url(#b)"><path d="M-76.9-57h169V73h-169z"/></g></g></g></svg>